STARTFONT 2.1
COMMENT Changes 2000 by Serge Winitzki.
COMMENT $XFree86$
FONT -Screen-Fixed-Bold-R-Normal--16-120-100-100-C-80-KOI8-R
SIZE 12 100 100
FONTBOUNDINGBOX 8 16 0 -2
STARTPROPERTIES 24
FONTNAME_REGISTRY ""
FOUNDRY "Screen"
FAMILY_NAME "Fixed"
WEIGHT_NAME "Bold"
SLANT "R"
SETWIDTH_NAME "Normal"
ADD_STYLE_NAME ""
PIXEL_SIZE 16
POINT_SIZE 120
RESOLUTION_X 100
RESOLUTION_Y 100
SPACING "C"
AVERAGE_WIDTH 80
CHARSET_REGISTRY "KOI8"
CHARSET_ENCODING "R"
X_HEIGHT 9
WEIGHT 10
RESOLUTION 138
QUAD_WIDTH 8
DEFAULT_CHAR 32
FONT_ASCENT 14
FONT_DESCENT 2
_XMBDFED_INFO "Edited with xmbdfed 4.3."
_XFREE86_GLYPH_RANGES "1_126 149 152_153 156_158 163 179 191_255"
ENDPROPERTIES
CHARS 199
STARTCHAR uni25C6
ENCODING 1
SWIDTH 480 0
DWIDTH 8 0
BBX 8 14 0 0
BITMAP
18
18
3C
3C
7E
7E
FF
FF
7E
7E
3C
3C
18
18
ENDCHAR
STARTCHAR shade
ENCODING 2
SWIDTH 480 0
DWIDTH 8 0
BBX 8 14 0 0
BITMAP
DB
DB
66
66
DB
DB
66
66
DB
DB
66
66
DB
DB
ENDCHAR
STARTCHAR uni2409
ENCODING 3
SWIDTH 480 0
DWIDTH 8 0
BBX 8 15 0 -2
BITMAP
CC
CC
CC
FC
CC
CC
CC
00
3F
0C
0C
0C
0C
0C
0C
ENDCHAR
STARTCHAR uni240C
ENCODING 4
SWIDTH 480 0
DWIDTH 8 0
BBX 8 14 0 -1
BITMAP
FC
C0
C0
F8
C0
C0
C0
3F
30
30
3E
30
30
30
ENDCHAR
STARTCHAR uni240D
ENCODING 5
SWIDTH 480 0
DWIDTH 8 0
BBX 8 15 0 -2
BITMAP
78
CC
C0
C0
C0
CC
78
00
3E
33
33
3E
3C
36
33
ENDCHAR
STARTCHAR uni240A
ENCODING 6
SWIDTH 480 0
DWIDTH 8 0
BBX 8 15 0 -2
BITMAP
C0
C0
C0
C0
C0
C0
FC
00
3F
30
30
3E
30
30
30
ENDCHAR
STARTCHAR degree
ENCODING 7
SWIDTH 480 0
DWIDTH 8 0
BBX 8 5 0 7
BITMAP
3C
66
66
66
3C
ENDCHAR
STARTCHAR plusminus
ENCODING 8
SWIDTH 480 0
DWIDTH 8 0
BBX 8 11 0 1
BITMAP
18
18
18
18
FF
18
18
18
18
00
FF
ENDCHAR
STARTCHAR uni2424
ENCODING 9
SWIDTH 480 0
DWIDTH 8 0
BBX 8 15 0 -2
BITMAP
C6
E6
F6
F6
DE
DE
CE
C6
30
30
30
30
30
30
3F
ENDCHAR
STARTCHAR uni240B
ENCODING 10
SWIDTH 480 0
DWIDTH 8 0
BBX 8 13 0 -1
BITMAP
CC
CC
CC
78
78
30
00
3F
0C
0C
0C
0C
0C
ENDCHAR
STARTCHAR SF040000
ENCODING 11
SWIDTH 480 0
DWIDTH 8 0
BBX 8 9 0 5
BITMAP
18
18
18
18
18
18
18
18
F8
ENDCHAR
STARTCHAR SF030000
ENCODING 12
SWIDTH 480 0
DWIDTH 8 0
BBX 8 8 0 -2
BITMAP
F8
18
18
18
18
18
18
18
ENDCHAR
STARTCHAR SF010000
ENCODING 13
SWIDTH 480 0
DWIDTH 8 0
BBX 8 8 0 -2
BITMAP
1F
18
18
18
18
18
18
18
ENDCHAR
STARTCHAR SF020000
ENCODING 14
SWIDTH 480 0
DWIDTH 8 0
BBX 8 9 0 5
BITMAP
18
18
18
18
18
18
18
18
1F
ENDCHAR
STARTCHAR SF050000
ENCODING 15
SWIDTH 480 0
DWIDTH 8 0
BBX 8 16 0 -2
BITMAP
18
18
18
18
18
18
18
18
FF
18
18
18
18
18
18
18
ENDCHAR
STARTCHAR char16
ENCODING 16
SWIDTH 480 0
DWIDTH 8 0
BBX 8 1 0 11
BITMAP
FF
ENDCHAR
STARTCHAR char17
ENCODING 17
SWIDTH 480 0
DWIDTH 8 0
BBX 8 1 0 8
BITMAP
FF
ENDCHAR
STARTCHAR char18
ENCODING 18
SWIDTH 480 0
DWIDTH 8 0
BBX 8 1 0 5
BITMAP
FF
ENDCHAR
STARTCHAR char19
ENCODING 19
SWIDTH 480 0
DWIDTH 8 0
BBX 8 1 0 2
BITMAP
FF
ENDCHAR
STARTCHAR char20
ENCODING 20
SWIDTH 480 0
DWIDTH 8 0
BBX 8 1 0 -1
BITMAP
FF
ENDCHAR
STARTCHAR SF080000
ENCODING 21
SWIDTH 480 0
DWIDTH 8 0
BBX 8 16 0 -2
BITMAP
18
18
18
18
18
18
18
18
1F
18
18
18
18
18
18
18
ENDCHAR
STARTCHAR SF090000
ENCODING 22
SWIDTH 480 0
DWIDTH 8 0
BBX 8 16 0 -2
BITMAP
18
18
18
18
18
18
18
18
F8
18
18
18
18
18
18
18
ENDCHAR
STARTCHAR SF070000
ENCODING 23
SWIDTH 480 0
DWIDTH 8 0
BBX 8 9 0 5
BITMAP
18
18
18
18
18
18
18
18
FF
ENDCHAR
STARTCHAR SF060000
ENCODING 24
SWIDTH 480 0
DWIDTH 8 0
BBX 8 8 0 -2
BITMAP
FF
18
18
18
18
18
18
18
ENDCHAR
STARTCHAR SF110000
ENCODING 25
SWIDTH 480 0
DWIDTH 8 0
BBX 8 16 0 -2
BITMAP
18
18
18
18
18
18
18
18
18
18
18
18
18
18
18
18
ENDCHAR
STARTCHAR lessequal
ENCODING 26
SWIDTH 480 0
DWIDTH 8 0
BBX 8 10 0 0
BITMAP
03
0E
38
E0
38
0E
03
FF
00
FF
ENDCHAR
STARTCHAR greaterequal
ENCODING 27
SWIDTH 480 0
DWIDTH 8 0
BBX 8 10 0 0
BITMAP
C0
70
1C
07
1C
70
C0
FF
00
FF
ENDCHAR
STARTCHAR pi
ENCODING 28
SWIDTH 480 0
DWIDTH 8 0
BBX 8 7 0 0
BITMAP
FF
36
36
36
36
66
C6
ENDCHAR
STARTCHAR notequal
ENCODING 29
SWIDTH 480 0
DWIDTH 8 0
BBX 8 9 0 1
BITMAP
03
06
0C
FF
18
FF
30
60
C0
ENDCHAR
STARTCHAR sterling
ENCODING 30
SWIDTH 480 0
DWIDTH 8 0
BBX 8 11 0 -1
BITMAP
0E
1B
18
18
18
7E
18
18
3E
7B
30
ENDCHAR
STARTCHAR periodcentered
ENCODING 31
SWIDTH 480 0
DWIDTH 8 0
BBX 8 1 0 5
BITMAP
18
ENDCHAR
STARTCHAR space
ENCODING 32
SWIDTH 480 0
DWIDTH 8 0
BBX 0 0 0 0
BITMAP
ENDCHAR
STARTCHAR exclam
ENCODING 33
SWIDTH 480 0
DWIDTH 8 0
BBX 8 14 0 -1
BITMAP
3C
3C
3C
3C
3C
3C
18
18
18
18
00
18
3C
18
ENDCHAR
STARTCHAR quotedbl
ENCODING 34
SWIDTH 480 0
DWIDTH 8 0
BBX 8 5 0 9
BITMAP
7E
7E
36
36
6C
ENDCHAR
STARTCHAR numbersign
ENCODING 35
SWIDTH 480 0
DWIDTH 8 0
BBX 8 14 0 -1
BITMAP
1B
1B
1B
7F
36
36
36
36
36
FF
6C
6C
6C
6C
ENDCHAR
STARTCHAR dollar
ENCODING 36
SWIDTH 480 0
DWIDTH 8 0
BBX 8 16 0 -2
BITMAP
18
3C
7E
DB
DF
D8
78
3C
1E
1B
FB
DB
DE
7C
18
18
ENDCHAR
STARTCHAR percent
ENCODING 37
SWIDTH 480 0
DWIDTH 8 0
BBX 8 16 0 -2
BITMAP
03
73
DE
DE
DE
DC
7C
18
18
3E
3B
7B
7B
7B
CE
C0
ENDCHAR
STARTCHAR ampersand
ENCODING 38
SWIDTH 480 0
DWIDTH 8 0
BBX 8 13 0 0
BITMAP
38
6C
6C
6C
78
30
3F
7E
7E
DE
CC
CE
7B
ENDCHAR
STARTCHAR quotesingle
ENCODING 39
SWIDTH 480 0
DWIDTH 8 0
BBX 8 5 0 9
BITMAP
F0
F0
30
30
E0
ENDCHAR
STARTCHAR parenleft
ENCODING 40
SWIDTH 480 0
DWIDTH 8 0
BBX 8 16 0 -2
BITMAP
03
06
0C
0C
18
18
18
18
18
18
18
18
0C
0C
06
03
ENDCHAR
STARTCHAR parenright
ENCODING 41
SWIDTH 480 0
DWIDTH 8 0
BBX 8 16 0 -2
BITMAP
C0
60
30
30
18
18
18
18
18
18
18
18
30
30
60
C0
ENDCHAR
STARTCHAR asterisk
ENCODING 42
SWIDTH 480 0
DWIDTH 8 0
BBX 8 9 0 2
BITMAP
18
3C
DB
FF
3C
FF
DB
3C
18
ENDCHAR
STARTCHAR plus
ENCODING 43
SWIDTH 480 0
DWIDTH 8 0
BBX 8 9 0 2
BITMAP
18
18
18
18
FF
18
18
18
18
ENDCHAR
STARTCHAR comma
ENCODING 44
SWIDTH 480 0
DWIDTH 8 0
BBX 8 5 0 -2
BITMAP
F0
F0
30
30
E0
ENDCHAR
STARTCHAR hyphen
ENCODING 45
SWIDTH 480 0
DWIDTH 8 0
BBX 8 1 0 6
BITMAP
FF
ENDCHAR
STARTCHAR period
ENCODING 46
SWIDTH 480 0
DWIDTH 8 0
BBX 8 4 0 -1
BITMAP
30
78
78
30
ENDCHAR
STARTCHAR slash
ENCODING 47
SWIDTH 480 0
DWIDTH 8 0
BBX 8 16 0 -2
BITMAP
03
03
06
06
0C
0C
0C
18
18
18
30
30
60
60
C0
C0
ENDCHAR
STARTCHAR zero
ENCODING 48
SWIDTH 480 0
DWIDTH 8 0
BBX 8 13 0 0
BITMAP
1C
36
36
63
63
63
63
63
63
63
36
36
1C
ENDCHAR
STARTCHAR one
ENCODING 49
SWIDTH 480 0
DWIDTH 8 0
BBX 8 13 0 0
BITMAP
18
78
18
18
18
18
18
18
18
18
18
18
7E
ENDCHAR
STARTCHAR two
ENCODING 50
SWIDTH 480 0
DWIDTH 8 0
BBX 8 13 0 0
BITMAP
1C
36
63
73
03
06
0C
0C
18
30
33
63
7F
ENDCHAR
STARTCHAR three
ENCODING 51
SWIDTH 480 0
DWIDTH 8 0
BBX 8 13 0 0
BITMAP
3C
66
C3
C3
03
06
3C
06
03
C3
C3
66
3C
ENDCHAR
STARTCHAR four
ENCODING 52
SWIDTH 480 0
DWIDTH 8 0
BBX 8 13 0 0
BITMAP
0C
1C
3C
3C
6C
6C
CC
CC
FF
0C
0C
0C
3E
ENDCHAR
STARTCHAR five
ENCODING 53
SWIDTH 480 0
DWIDTH 8 0
BBX 8 13 0 0
BITMAP
FE
C0
C0
C0
FC
E6
C3
03
03
E3
C3
66
3C
ENDCHAR
STARTCHAR six
ENCODING 54
SWIDTH 480 0
DWIDTH 8 0
BBX 8 13 0 0
BITMAP
3E
63
67
C0
C0
FC
E6
C3
C3
C3
C3
66
3C
ENDCHAR
STARTCHAR seven
ENCODING 55
SWIDTH 480 0
DWIDTH 8 0
BBX 8 14 0 -1
BITMAP
FF
C3
C3
06
06
06
0C
0C
0C
0C
18
18
18
18
ENDCHAR
STARTCHAR eight
ENCODING 56
SWIDTH 480 0
DWIDTH 8 0
BBX 8 13 0 0
BITMAP
3C
66
C3
C3
C3
66
3C
66
C3
C3
C3
66
3C
ENDCHAR
STARTCHAR nine
ENCODING 57
SWIDTH 480 0
DWIDTH 8 0
BBX 8 13 0 0
BITMAP
3C
66
C3
C3
C3
C3
67
3F
03
03
C3
66
3C
ENDCHAR
STARTCHAR colon
ENCODING 58
SWIDTH 480 0
DWIDTH 8 0
BBX 8 9 0 0
BITMAP
3C
3C
00
00
00
00
00
3C
3C
ENDCHAR
STARTCHAR semicolon
ENCODING 59
SWIDTH 480 0
DWIDTH 8 0
BBX 8 11 0 -2
BITMAP
3C
3C
00
00
00
00
3C
3C
1C
18
38
ENDCHAR
STARTCHAR less
ENCODING 60
SWIDTH 480 0
DWIDTH 8 0
BBX 8 16 0 -2
BITMAP
03
06
06
0C
0C
18
18
30
30
18
18
0C
0C
06
06
03
ENDCHAR
STARTCHAR equal
ENCODING 61
SWIDTH 480 0
DWIDTH 8 0
BBX 8 5 0 4
BITMAP
FF
00
00
00
FF
ENDCHAR
STARTCHAR greater
ENCODING 62
SWIDTH 480 0
DWIDTH 8 0
BBX 8 16 0 -2
BITMAP
C0
60
60
30
30
18
18
0C
0C
18
18
30
30
60
60
C0
ENDCHAR
STARTCHAR question
ENCODING 63
SWIDTH 480 0
DWIDTH 8 0
BBX 8 14 0 -1
BITMAP
3C
66
C3
E3
03
06
06
0C
18
18
00
18
3C
18
ENDCHAR
STARTCHAR at
ENCODING 64
SWIDTH 480 0
DWIDTH 8 0
BBX 8 13 0 0
BITMAP
3E
63
C3
DF
F7
F3
F3
F3
F7
DF
C0
63
3E
ENDCHAR
STARTCHAR A
ENCODING 65
SWIDTH 480 0
DWIDTH 8 0
BBX 8 13 0 0
BITMAP
18
3C
3C
3C
66
66
66
66
7E
C3
C3
C3
E7
ENDCHAR
STARTCHAR B
ENCODING 66
SWIDTH 480 0
DWIDTH 8 0
BBX 8 13 0 0
BITMAP
FC
66
63
63
63
66
7C
66
63
63
63
63
FE
ENDCHAR
STARTCHAR C
ENCODING 67
SWIDTH 480 0
DWIDTH 8 0
BBX 8 13 0 0
BITMAP
3F
67
63
C0
C0
C0
C0
C0
C0
C3
63
63
3E
ENDCHAR
STARTCHAR D
ENCODING 68
SWIDTH 480 0
DWIDTH 8 0
BBX 8 13 0 0
BITMAP
FC
66
66
63
63
63
63
63
63
63
66
66
FC
ENDCHAR
STARTCHAR E
ENCODING 69
SWIDTH 480 0
DWIDTH 8 0
BBX 8 13 0 0
BITMAP
FF
63
63
60
6C
6C
7C
6C
6C
63
63
63
FF
ENDCHAR
STARTCHAR F
ENCODING 70
SWIDTH 480 0
DWIDTH 8 0
BBX 8 13 0 0
BITMAP
FF
63
63
60
6C
6C
7C
6C
6C
60
60
60
F8
ENDCHAR
STARTCHAR G
ENCODING 71
SWIDTH 480 0
DWIDTH 8 0
BBX 8 13 0 0
BITMAP
1F
37
63
60
C0
C0
CF
C3
C3
C3
63
77
1F
ENDCHAR
STARTCHAR H
ENCODING 72
SWIDTH 480 0
DWIDTH 8 0
BBX 8 13 0 0
BITMAP
F7
63
63
63
63
7F
63
63
63
63
63
63
F7
ENDCHAR
STARTCHAR I
ENCODING 73
SWIDTH 480 0
DWIDTH 8 0
BBX 8 13 0 0
BITMAP
FF
18
18
18
18
18
18
18
18
18
18
18
FF
ENDCHAR
STARTCHAR J
ENCODING 74
SWIDTH 480 0
DWIDTH 8 0
BBX 8 13 0 0
BITMAP
1F
03
03
03
03
03
03
03
C3
C3
C3
66
3C
ENDCHAR
STARTCHAR K
ENCODING 75
SWIDTH 480 0
DWIDTH 8 0
BBX 8 13 0 0
BITMAP
F7
66
66
6C
6C
78
78
6C
6C
66
66
63
F3
ENDCHAR
STARTCHAR L
ENCODING 76
SWIDTH 480 0
DWIDTH 8 0
BBX 8 13 0 0
BITMAP
F8
60
60
60
60
60
60
60
60
63
63
63
FF
ENDCHAR
STARTCHAR M
ENCODING 77
SWIDTH 480 0
DWIDTH 8 0
BBX 8 13 0 0
BITMAP
C3
E7
FF
FF
FF
DB
DB
DB
C3
C3
C3
C3
E7
ENDCHAR
STARTCHAR N
ENCODING 78
SWIDTH 480 0
DWIDTH 8 0
BBX 8 13 0 0
BITMAP
C7
E3
F3
F3
F3
DB
DB
DB
CF
CF
CF
C7
E3
ENDCHAR
STARTCHAR O
ENCODING 79
SWIDTH 480 0
DWIDTH 8 0
BBX 8 13 0 0
BITMAP
3C
66
C3
C3
C3
C3
C3
C3
C3
C3
C3
66
3C
ENDCHAR
STARTCHAR P
ENCODING 80
SWIDTH 480 0
DWIDTH 8 0
BBX 8 13 0 0
BITMAP
FC
66
63
63
63
63
66
7C
60
60
60
60
F8
ENDCHAR
STARTCHAR Q
ENCODING 81
SWIDTH 480 0
DWIDTH 8 0
BBX 8 15 0 -2
BITMAP
3C
66
66
C3
C3
C3
C3
C3
C3
FF
66
66
3C
0C
07
ENDCHAR
STARTCHAR R
ENCODING 82
SWIDTH 480 0
DWIDTH 8 0
BBX 8 13 0 0
BITMAP
FC
66
63
63
63
66
7C
6C
66
66
66
63
F3
ENDCHAR
STARTCHAR S
ENCODING 83
SWIDTH 480 0
DWIDTH 8 0
BBX 8 13 0 0
BITMAP
3E
6E
C6
C0
C0
70
1C
06
C3
C3
C3
E6
FC
ENDCHAR
STARTCHAR T
ENCODING 84
SWIDTH 480 0
DWIDTH 8 0
BBX 8 13 0 0
BITMAP
FF
DB
DB
18
18
18
18
18
18
18
18
18
7E
ENDCHAR
STARTCHAR U
ENCODING 85
SWIDTH 480 0
DWIDTH 8 0
BBX 8 13 0 0
BITMAP
F7
63
63
63
63
63
63
63
63
63
63
63
3E
ENDCHAR
STARTCHAR V
ENCODING 86
SWIDTH 480 0
DWIDTH 8 0
BBX 8 13 0 0
BITMAP
E7
C3
C3
C3
C3
66
66
66
66
3C
3C
18
18
ENDCHAR
STARTCHAR W
ENCODING 87
SWIDTH 480 0
DWIDTH 8 0
BBX 8 13 0 0
BITMAP
E7
C3
C3
C3
DB
DB
DB
FF
FF
FF
66
66
66
ENDCHAR
STARTCHAR X
ENCODING 88
SWIDTH 480 0
DWIDTH 8 0
BBX 8 13 0 0
BITMAP
FF
66
66
3C
3C
18
3C
3C
3C
66
66
C3
E7
ENDCHAR
STARTCHAR Y
ENCODING 89
SWIDTH 480 0
DWIDTH 8 0
BBX 8 13 0 0
BITMAP
E7
C3
66
66
66
3C
3C
18
18
18
18
18
7E
ENDCHAR
STARTCHAR Z
ENCODING 90
SWIDTH 480 0
DWIDTH 8 0
BBX 8 13 0 0
BITMAP
FF
C6
CC
0C
18
18
18
30
30
63
63
C3
FF
ENDCHAR
STARTCHAR bracketleft
ENCODING 91
SWIDTH 480 0
DWIDTH 8 0
BBX 8 16 0 -2
BITMAP
1F
18
18
18
18
18
18
18
18
18
18
18
18
18
18
1F
ENDCHAR
STARTCHAR backslash
ENCODING 92
SWIDTH 480 0
DWIDTH 8 0
BBX 8 14 0 -1
BITMAP
C0
C0
60
60
30
30
18
18
0C
0C
06
06
03
03
ENDCHAR
STARTCHAR bracketright
ENCODING 93
SWIDTH 480 0
DWIDTH 8 0
BBX 8 16 0 -2
BITMAP
F8
18
18
18
18
18
18
18
18
18
18
18
18
18
18
F8
ENDCHAR
STARTCHAR asciicircum
ENCODING 94
SWIDTH 480 0
DWIDTH 8 0
BBX 8 4 0 10
BITMAP
18
3C
66
C3
ENDCHAR
STARTCHAR underscore
ENCODING 95
SWIDTH 480 0
DWIDTH 8 0
BBX 8 1 0 -2
BITMAP
FF
ENDCHAR
STARTCHAR grave
ENCODING 96
SWIDTH 480 0
DWIDTH 8 0
BBX 8 4 0 9
BITMAP
70
70
30
18
ENDCHAR
STARTCHAR a
ENCODING 97
SWIDTH 480 0
DWIDTH 8 0
BBX 8 9 0 0
BITMAP
3E
63
03
3F
63
C3
C3
C7
7F
ENDCHAR
STARTCHAR b
ENCODING 98
SWIDTH 480 0
DWIDTH 8 0
BBX 8 13 0 0
BITMAP
E0
60
60
60
7C
66
63
63
63
63
63
66
7C
ENDCHAR
STARTCHAR c
ENCODING 99
SWIDTH 480 0
DWIDTH 8 0
BBX 8 9 0 0
BITMAP
3F
67
C3
C0
C0
C0
C3
63
3E
ENDCHAR
STARTCHAR d
ENCODING 100
SWIDTH 480 0
DWIDTH 8 0
BBX 8 13 0 0
BITMAP
07
06
06
06
3E
66
C6
C6
C6
C6
C6
66
3F
ENDCHAR
STARTCHAR e
ENCODING 101
SWIDTH 480 0
DWIDTH 8 0
BBX 8 9 0 0
BITMAP
3C
66
C3
FF
C0
C0
C3
63
3E
ENDCHAR
STARTCHAR f
ENCODING 102
SWIDTH 480 0
DWIDTH 8 0
BBX 8 13 0 0
BITMAP
0F
19
18
18
FF
18
18
18
18
18
18
18
7E
ENDCHAR
STARTCHAR g
ENCODING 103
SWIDTH 480 0
DWIDTH 8 0
BBX 8 11 0 -2
BITMAP
3F
66
66
66
3C
60
7C
C6
C3
C3
7E
ENDCHAR
STARTCHAR h
ENCODING 104
SWIDTH 480 0
DWIDTH 8 0
BBX 8 13 0 0
BITMAP
E0
60
60
60
7E
73
63
63
63
63
63
63
F7
ENDCHAR
STARTCHAR i
ENCODING 105
SWIDTH 480 0
DWIDTH 8 0
BBX 8 14 0 0
BITMAP
38
38
00
00
00
F8
18
18
18
18
18
18
18
FF
ENDCHAR
STARTCHAR j
ENCODING 106
SWIDTH 480 0
DWIDTH 8 0
BBX 8 16 0 -2
BITMAP
07
07
00
00
00
3F
03
03
03
03
03
03
C3
C3
66
3C
ENDCHAR
STARTCHAR k
ENCODING 107
SWIDTH 480 0
DWIDTH 8 0
BBX 8 13 0 0
BITMAP
E0
60
60
60
63
66
6C
7C
76
66
63
63
F3
ENDCHAR
STARTCHAR l
ENCODING 108
SWIDTH 480 0
DWIDTH 8 0
BBX 8 13 0 0
BITMAP
F8
18
18
18
18
18
18
18
18
18
18
18
FF
ENDCHAR
STARTCHAR m
ENCODING 109
SWIDTH 480 0
DWIDTH 8 0
BBX 8 9 0 0
BITMAP
7E
DB
DB
DB
DB
DB
DB
DB
FF
ENDCHAR
STARTCHAR n
ENCODING 110
SWIDTH 480 0
DWIDTH 8 0
BBX 8 9 0 0
BITMAP
FE
73
63
63
63
63
63
63
F7
ENDCHAR
STARTCHAR o
ENCODING 111
SWIDTH 480 0
DWIDTH 8 0
BBX 8 9 0 0
BITMAP
3C
66
C3
C3
C3
C3
C3
66
3C
ENDCHAR
STARTCHAR p
ENCODING 112
SWIDTH 480 0
DWIDTH 8 0
BBX 8 11 0 -2
BITMAP
FC
66
63
63
63
63
66
7C
60
60
F8
ENDCHAR
STARTCHAR q
ENCODING 113
SWIDTH 480 0
DWIDTH 8 0
BBX 8 11 0 -2
BITMAP
3F
66
C6
C6
C6
C6
66
3E
06
06
1F
ENDCHAR
STARTCHAR r
ENCODING 114
SWIDTH 480 0
DWIDTH 8 0
BBX 8 9 0 0
BITMAP
FE
3B
33
30
30
30
30
30
FE
ENDCHAR
STARTCHAR s
ENCODING 115
SWIDTH 480 0
DWIDTH 8 0
BBX 8 9 0 0
BITMAP
3F
67
63
60
3E
03
C3
E3
FE
ENDCHAR
STARTCHAR t
ENCODING 116
SWIDTH 480 0
DWIDTH 8 0
BBX 8 12 0 0
BITMAP
30
30
30
FE
30
30
30
30
30
33
33
1E
ENDCHAR
STARTCHAR u
ENCODING 117
SWIDTH 480 0
DWIDTH 8 0
BBX 8 9 0 0
BITMAP
E7
63
63
63
63
63
63
67
3D
ENDCHAR
STARTCHAR v
ENCODING 118
SWIDTH 480 0
DWIDTH 8 0
BBX 8 9 0 0
BITMAP
E7
C3
C3
66
66
66
3C
3C
18
ENDCHAR
STARTCHAR w
ENCODING 119
SWIDTH 480 0
DWIDTH 8 0
BBX 8 9 0 0
BITMAP
DB
DB
DB
DB
FF
FF
66
66
66
ENDCHAR
STARTCHAR x
ENCODING 120
SWIDTH 480 0
DWIDTH 8 0
BBX 8 9 0 0
BITMAP
FF
66
3C
3C
18
3C
3C
66
FF
ENDCHAR
STARTCHAR y
ENCODING 121
SWIDTH 480 0
DWIDTH 8 0
BBX 8 11 0 -2
BITMAP
F7
63
33
36
1E
0C
0C
18
D8
F0
60
ENDCHAR
STARTCHAR z
ENCODING 122
SWIDTH 480 0
DWIDTH 8 0
BBX 8 9 0 0
BITMAP
7F
66
0C
0C
18
18
33
63
FF
ENDCHAR
STARTCHAR braceleft
ENCODING 123
SWIDTH 480 0
DWIDTH 8 0
BBX 8 16 0 -2
BITMAP
07
0C
0C
0C
0C
0C
18
30
18
0C
0C
0C
0C
0C
0C
07
ENDCHAR
STARTCHAR bar
ENCODING 124
SWIDTH 480 0
DWIDTH 8 0
BBX 8 16 0 -2
BITMAP
18
18
18
18
18
18
18
18
18
18
18
18
18
18
18
18
ENDCHAR
STARTCHAR braceright
ENCODING 125
SWIDTH 480 0
DWIDTH 8 0
BBX 8 16 0 -2
BITMAP
E0
30
30
30
30
30
18
0C
18
30
30
30
30
30
30
E0
ENDCHAR
STARTCHAR asciitilde
ENCODING 126
SWIDTH 480 0
DWIDTH 8 0
BBX 8 3 0 11
BITMAP
70
DB
0E
ENDCHAR
STARTCHAR bullet
ENCODING 149
SWIDTH 480 0
DWIDTH 8 0
BBX 8 5 0 3
BITMAP
38
7C
7C
7C
38
ENDCHAR
STARTCHAR lessequal
ENCODING 152
SWIDTH 480 0
DWIDTH 8 0
BBX 8 10 0 0
BITMAP
03
0E
38
E0
38
0E
03
FF
00
FF
ENDCHAR
STARTCHAR greaterequal
ENCODING 153
SWIDTH 480 0
DWIDTH 8 0
BBX 8 10 0 0
BITMAP
C0
70
1C
07
1C
70
C0
FF
00
FF
ENDCHAR
STARTCHAR degree
ENCODING 156
SWIDTH 480 0
DWIDTH 8 0
BBX 8 5 0 8
BITMAP
3C
66
66
66
3C
ENDCHAR
STARTCHAR twosuperior
ENCODING 157
SWIDTH 480 0
DWIDTH 8 0
BBX 8 7 0 6
BITMAP
1C
36
06
0C
18
30
3E
ENDCHAR
STARTCHAR periodcentered
ENCODING 158
SWIDTH 480 0
DWIDTH 8 0
BBX 8 1 0 5
BITMAP
18
ENDCHAR
STARTCHAR afii10071
ENCODING 163
SWIDTH 480 0
DWIDTH 8 0
BBX 8 12 0 0
BITMAP
66
66
00
3C
66
C3
FF
C0
C0
C3
63
3E
ENDCHAR
STARTCHAR afii10023
ENCODING 179
SWIDTH 480 0
DWIDTH 8 0
BBX 8 14 0 0
BITMAP
7E
FF
63
63
60
6C
6C
7C
6C
6C
63
63
63
FF
ENDCHAR
STARTCHAR copyright
ENCODING 191
SWIDTH 480 0
DWIDTH 8 0
BBX 8 13 0 0
BITMAP
3E
63
DD
F7
F1
F1
F1
F1
F1
F7
DD
63
3E
ENDCHAR
STARTCHAR afii10096
ENCODING 192
SWIDTH 480 0
DWIDTH 8 0
BBX 8 9 0 0
BITMAP
EE
DB
DB
DB
FB
DB
DB
DB
EE
ENDCHAR
STARTCHAR afii10065
ENCODING 193
SWIDTH 480 0
DWIDTH 8 0
BBX 8 9 0 0
BITMAP
3E
63
03
3F
63
C3
C3
C7
7F
ENDCHAR
STARTCHAR afii10066
ENCODING 194
SWIDTH 480 0
DWIDTH 8 0
BBX 8 13 0 0
BITMAP
06
3C
60
C0
FC
E6
C3
C3
C3
C3
C3
66
3C
ENDCHAR
STARTCHAR afii10088
ENCODING 195
SWIDTH 480 0
DWIDTH 8 0
BBX 8 11 0 -2
BITMAP
EF
C6
C6
C6
C6
C6
C6
C6
FF
03
01
ENDCHAR
STARTCHAR afii10069
ENCODING 196
SWIDTH 480 0
DWIDTH 8 0
BBX 8 11 0 -2
BITMAP
7F
36
36
66
66
66
C6
C6
FF
C3
C3
ENDCHAR
STARTCHAR afii10070
ENCODING 197
SWIDTH 480 0
DWIDTH 8 0
BBX 8 9 0 0
BITMAP
3C
66
C3
FF
C0
C0
C3
63
3E
ENDCHAR
STARTCHAR afii10086
ENCODING 198
SWIDTH 480 0
DWIDTH 8 0
BBX 8 13 0 -2
BITMAP
3C
18
7E
DB
DB
DB
DB
DB
DB
DB
7E
18
7E
ENDCHAR
STARTCHAR afii10068
ENCODING 199
SWIDTH 480 0
DWIDTH 8 0
BBX 8 9 0 0
BITMAP
FF
63
60
60
60
60
60
60
F8
ENDCHAR
STARTCHAR afii10087
ENCODING 200
SWIDTH 480 0
DWIDTH 8 0
BBX 8 9 0 0
BITMAP
FF
66
3C
3C
18
3C
3C
66
FF
ENDCHAR
STARTCHAR afii10074
ENCODING 201
SWIDTH 480 0
DWIDTH 8 0
BBX 8 9 0 0
BITMAP
F7
63
67
6F
7B
73
63
63
F7
ENDCHAR
STARTCHAR afii10075
ENCODING 202
SWIDTH 480 0
DWIDTH 8 0
BBX 8 12 0 0
BITMAP
36
1C
00
F7
63
67
6F
7B
73
63
63
F7
ENDCHAR
STARTCHAR afii10076
ENCODING 203
SWIDTH 480 0
DWIDTH 8 0
BBX 8 9 0 0
BITMAP
F7
66
6C
6C
78
6C
66
63
F3
ENDCHAR
STARTCHAR afii10077
ENCODING 204
SWIDTH 480 0
DWIDTH 8 0
BBX 8 9 0 0
BITMAP
7F
33
33
33
33
33
33
F3
E7
ENDCHAR
STARTCHAR afii10078
ENCODING 205
SWIDTH 480 0
DWIDTH 8 0
BBX 8 9 0 0
BITMAP
C3
E7
FF
FF
DB
DB
C3
C3
E7
ENDCHAR
STARTCHAR afii10079
ENCODING 206
SWIDTH 480 0
DWIDTH 8 0
BBX 8 9 0 0
BITMAP
F7
63
63
63
7F
63
63
63
F7
ENDCHAR
STARTCHAR afii10080
ENCODING 207
SWIDTH 480 0
DWIDTH 8 0
BBX 8 9 0 0
BITMAP
3C
66
C3
C3
C3
C3
C3
66
3C
ENDCHAR
STARTCHAR afii10081
ENCODING 208
SWIDTH 480 0
DWIDTH 8 0
BBX 8 9 0 0
BITMAP
FF
63
63
63
63
63
63
63
F7
ENDCHAR
STARTCHAR afii10097
ENCODING 209
SWIDTH 480 0
DWIDTH 8 0
BBX 8 9 0 0
BITMAP
3F
63
63
63
3F
1B
33
33
E7
ENDCHAR
STARTCHAR afii10082
ENCODING 210
SWIDTH 480 0
DWIDTH 8 0
BBX 8 11 0 -2
BITMAP
FC
66
63
63
63
63
66
7C
60
60
F8
ENDCHAR
STARTCHAR afii10083
ENCODING 211
SWIDTH 480 0
DWIDTH 8 0
BBX 8 9 0 0
BITMAP
3F
67
C3
C0
C0
C0
C3
63
3E
ENDCHAR
STARTCHAR afii10084
ENCODING 212
SWIDTH 480 0
DWIDTH 8 0
BBX 8 9 0 0
BITMAP
FF
DB
18
18
18
18
18
18
3C
ENDCHAR
STARTCHAR afii10085
ENCODING 213
SWIDTH 480 0
DWIDTH 8 0
BBX 8 11 0 -2
BITMAP
F7
63
33
36
1E
0C
0C
18
D8
F0
60
ENDCHAR
STARTCHAR afii10072
ENCODING 214
SWIDTH 480 0
DWIDTH 8 0
BBX 8 9 0 0
BITMAP
FF
DB
DB
7E
7E
DB
DB
DB
FF
ENDCHAR
STARTCHAR afii10067
ENCODING 215
SWIDTH 480 0
DWIDTH 8 0
BBX 8 9 0 0
BITMAP
FC
66
63
66
7C
66
63
63
FE
ENDCHAR
STARTCHAR afii10094
ENCODING 216
SWIDTH 480 0
DWIDTH 8 0
BBX 8 9 0 0
BITMAP
F0
60
60
7E
63
63
63
63
FE
ENDCHAR
STARTCHAR afii10093
ENCODING 217
SWIDTH 480 0
DWIDTH 8 0
BBX 8 9 0 0
BITMAP
E7
C3
C3
FB
CF
CF
CF
CF
FB
ENDCHAR
STARTCHAR afii10073
ENCODING 218
SWIDTH 480 0
DWIDTH 8 0
BBX 8 9 0 0
BITMAP
3C
66
E3
06
1C
06
E3
63
3E
ENDCHAR
STARTCHAR afii10090
ENCODING 219
SWIDTH 480 0
DWIDTH 8 0
BBX 8 9 0 0
BITMAP
FF
DB
DB
DB
DB
DB
DB
DB
FF
ENDCHAR
STARTCHAR afii10095
ENCODING 220
SWIDTH 480 0
DWIDTH 8 0
BBX 8 9 0 0
BITMAP
3C
66
E3
03
1F
03
E3
66
3C
ENDCHAR
STARTCHAR afii10091
ENCODING 221
SWIDTH 480 0
DWIDTH 8 0
BBX 8 11 0 -2
BITMAP
FF
DB
DB
DB
DB
DB
DB
DB
FF
03
03
ENDCHAR
STARTCHAR afii10089
ENCODING 222
SWIDTH 480 0
DWIDTH 8 0
BBX 8 9 0 0
BITMAP
F7
63
63
63
3F
03
03
03
07
ENDCHAR
STARTCHAR afii10092
ENCODING 223
SWIDTH 480 0
DWIDTH 8 0
BBX 8 9 0 0
BITMAP
F0
F0
B0
3E
33
33
33
33
7E
ENDCHAR
STARTCHAR afii10048
ENCODING 224
SWIDTH 480 0
DWIDTH 8 0
BBX 8 13 0 0
BITMAP
CC
DE
F3
F3
F3
F3
F3
F3
F3
F3
F3
DE
CC
ENDCHAR
STARTCHAR afii10017
ENCODING 225
SWIDTH 480 0
DWIDTH 8 0
BBX 8 13 0 0
BITMAP
18
3C
3C
3C
66
66
66
66
7E
C3
C3
C3
E7
ENDCHAR
STARTCHAR afii10018
ENCODING 226
SWIDTH 480 0
DWIDTH 8 0
BBX 8 13 0 0
BITMAP
FE
66
60
60
60
60
7E
63
63
63
63
63
FE
ENDCHAR
STARTCHAR afii10040
ENCODING 227
SWIDTH 480 0
DWIDTH 8 0
BBX 8 15 0 -2
BITMAP
EF
C6
C6
C6
C6
C6
C6
C6
C6
C6
C6
C6
FF
03
03
ENDCHAR
STARTCHAR afii10021
ENCODING 228
SWIDTH 480 0
DWIDTH 8 0
BBX 8 15 0 -2
BITMAP
7F
36
36
36
66
66
66
66
C6
C6
C6
C6
FF
C3
C3
ENDCHAR
STARTCHAR afii10022
ENCODING 229
SWIDTH 480 0
DWIDTH 8 0
BBX 8 13 0 0
BITMAP
FF
63
63
60
6C
6C
7C
6C
6C
63
63
63
FF
ENDCHAR
STARTCHAR afii10038
ENCODING 230
SWIDTH 480 0
DWIDTH 8 0
BBX 8 13 0 0
BITMAP
3C
18
7E
DB
DB
DB
DB
DB
DB
7E
18
18
7E
ENDCHAR
STARTCHAR afii10020
ENCODING 231
SWIDTH 480 0
DWIDTH 8 0
BBX 8 13 0 0
BITMAP
FF
63
63
60
60
60
60
60
60
60
60
60
F8
ENDCHAR
STARTCHAR afii10039
ENCODING 232
SWIDTH 480 0
DWIDTH 8 0
BBX 8 13 0 0
BITMAP
FF
66
66
3C
3C
18
3C
3C
3C
66
66
C3
E7
ENDCHAR
STARTCHAR afii10026
ENCODING 233
SWIDTH 480 0
DWIDTH 8 0
BBX 8 13 0 0
BITMAP
E3
C7
CF
CF
CF
DB
DB
DB
F3
F3
F3
E3
C7
ENDCHAR
STARTCHAR afii10027
ENCODING 234
SWIDTH 480 0
DWIDTH 8 0
BBX 8 14 0 0
BITMAP
3C
DB
C7
CF
CF
CF
DB
DB
DB
F3
F3
F3
E3
C7
ENDCHAR
STARTCHAR afii10028
ENCODING 235
SWIDTH 480 0
DWIDTH 8 0
BBX 8 13 0 0
BITMAP
F7
66
66
6C
6C
78
78
6C
6C
66
66
63
F3
ENDCHAR
STARTCHAR afii10029
ENCODING 236
SWIDTH 480 0
DWIDTH 8 0
BBX 8 13 0 0
BITMAP
7F
33
33
33
33
33
33
33
33
33
33
F3
E7
ENDCHAR
STARTCHAR afii10030
ENCODING 237
SWIDTH 480 0
DWIDTH 8 0
BBX 8 13 0 0
BITMAP
C3
E7
FF
FF
FF
DB
DB
DB
C3
C3
C3
C3
E7
ENDCHAR
STARTCHAR afii10031
ENCODING 238
SWIDTH 480 0
DWIDTH 8 0
BBX 8 13 0 0
BITMAP
F7
63
63
63
63
7F
63
63
63
63
63
63
F7
ENDCHAR
STARTCHAR afii10032
ENCODING 239
SWIDTH 480 0
DWIDTH 8 0
BBX 8 13 0 0
BITMAP
3C
66
C3
C3
C3
C3
C3
C3
C3
C3
C3
66
3C
ENDCHAR
STARTCHAR afii10033
ENCODING 240
SWIDTH 480 0
DWIDTH 8 0
BBX 8 13 0 0
BITMAP
FF
63
63
63
63
63
63
63
63
63
63
63
F7
ENDCHAR
STARTCHAR afii10049
ENCODING 241
SWIDTH 480 0
DWIDTH 8 0
BBX 8 13 0 0
BITMAP
1F
33
63
63
63
33
1F
1B
33
33
33
63
E7
ENDCHAR
STARTCHAR afii10034
ENCODING 242
SWIDTH 480 0
DWIDTH 8 0
BBX 8 13 0 0
BITMAP
FC
66
63
63
63
63
66
7C
60
60
60
60
F8
ENDCHAR
STARTCHAR afii10035
ENCODING 243
SWIDTH 480 0
DWIDTH 8 0
BBX 8 13 0 0
BITMAP
3F
67
63
C0
C0
C0
C0
C0
C0
C3
63
63
3E
ENDCHAR
STARTCHAR afii10036
ENCODING 244
SWIDTH 480 0
DWIDTH 8 0
BBX 8 13 0 0
BITMAP
FF
DB
DB
18
18
18
18
18
18
18
18
18
7E
ENDCHAR
STARTCHAR afii10037
ENCODING 245
SWIDTH 480 0
DWIDTH 8 0
BBX 8 13 0 0
BITMAP
E7
C3
66
66
66
3C
3C
1C
18
18
30
F0
60
ENDCHAR
STARTCHAR afii10024
ENCODING 246
SWIDTH 480 0
DWIDTH 8 0
BBX 8 13 0 0
BITMAP
FF
DB
DB
DB
7E
7E
3C
7E
DB
DB
DB
DB
FF
ENDCHAR
STARTCHAR afii10019
ENCODING 247
SWIDTH 480 0
DWIDTH 8 0
BBX 8 13 0 0
BITMAP
FC
66
63
63
63
66
7C
66
63
63
63
63
FE
ENDCHAR
STARTCHAR afii10046
ENCODING 248
SWIDTH 480 0
DWIDTH 8 0
BBX 8 13 0 0
BITMAP
F0
60
60
60
60
60
7C
66
63
63
63
63
FE
ENDCHAR
STARTCHAR afii10045
ENCODING 249
SWIDTH 480 0
DWIDTH 8 0
BBX 8 13 0 0
BITMAP
E7
C3
C3
C3
C3
F3
DB
CF
CF
CF
CF
CF
FB
ENDCHAR
STARTCHAR afii10025
ENCODING 250
SWIDTH 480 0
DWIDTH 8 0
BBX 8 13 0 0
BITMAP
3C
66
C3
C3
03
06
1C
06
03
E3
C3
66
3C
ENDCHAR
STARTCHAR afii10042
ENCODING 251
SWIDTH 480 0
DWIDTH 8 0
BBX 8 13 0 0
BITMAP
FF
DB
DB
DB
DB
DB
DB
DB
DB
DB
DB
DB
FF
ENDCHAR
STARTCHAR afii10047
ENCODING 252
SWIDTH 480 0
DWIDTH 8 0
BBX 8 13 0 0
BITMAP
3C
66
C3
E3
03
03
3F
03
03
E3
C3
66
3C
ENDCHAR
STARTCHAR afii10043
ENCODING 253
SWIDTH 480 0
DWIDTH 8 0
BBX 8 15 0 -2
BITMAP
FF
DB
DB
DB
DB
DB
DB
DB
DB
DB
DB
DB
FF
03
03
ENDCHAR
STARTCHAR afii10041
ENCODING 254
SWIDTH 480 0
DWIDTH 8 0
BBX 8 13 0 0
BITMAP
FF
66
66
66
66
66
3E
06
06
06
06
06
0F
ENDCHAR
STARTCHAR afii10044
ENCODING 255
SWIDTH 480 0
DWIDTH 8 0
BBX 8 13 0 0
BITMAP
F0
F0
F0
30
30
30
3C
36
33
33
33
33
7E
ENDCHAR
ENDFONT
